<svg xmlns="http://www.w3.org/2000/svg" xmlns:xlink="http://www.w3.org/1999/xlink" viewBox="0 0 500 500">
  <defs>
    <style>
      .cls-1 {
        isolation: isolate;
      }

      .cls-2 {
        fill: #fff;
      }

      .cls-3 {
        fill: #b5dfea;
      }

      .cls-4 {
        fill: #90cedd;
      }

      .cls-19, .cls-4 {
        opacity: 0.55;
      }

      .cls-5 {
        fill: #d7f0f9;
      }

      .cls-6 {
        fill: #0582c1;
      }

      .cls-22, .cls-7 {
        fill: #79c9e8;
      }

      .cls-8 {
        fill: #ffbf4d;
      }

      .cls-9 {
        fill: #00668e;
      }

      .cls-10 {
        fill: #05556d;
      }

      .cls-11 {
        fill: #f98d3d;
      }

      .cls-12 {
        fill: #ed701b;
      }

      .cls-13 {
        fill: none;
      }

      .cls-14 {
        fill: #efaa3a;
      }

      .cls-15 {
        fill: #f98d2b;
        mix-blend-mode: multiply;
        opacity: 0.29;
      }

      .cls-16 {
        fill: #49b4d6;
      }

      .cls-17 {
        fill: #ff9f50;
      }

      .cls-18 {
        fill: #f77e2d;
      }

      .cls-19 {
        mix-blend-mode: overlay;
        fill: url(#linear-gradient);
      }

      .cls-20 {
        font-size: 45.69px;
        fill: #5db8e8;
        font-family: Gunplay-Regular, Gunplay;
      }

      .cls-21 {
        letter-spacing: -0.11em;
      }

      .cls-22 {
        font-size: 12px;
        font-family: MyriadPro-Regular, Myriad Pro;
      }

      .cls-23 {
        letter-spacing: -0.01em;
      }

      .cls-24 {
        letter-spacing: 0em;
      }

      .cls-25 {
        letter-spacing: 0.01em;
      }

      .cls-26 {
        letter-spacing: -0.01em;
      }

      .cls-27 {
        letter-spacing: 0em;
      }

      .cls-28 {
        letter-spacing: -0.01em;
      }

      .cls-29 {
        letter-spacing: 0em;
      }

      .cls-30 {
        letter-spacing: 0.02em;
      }

      .cls-31 {
        letter-spacing: 0.01em;
      }

      .cls-32 {
        letter-spacing: -0.04em;
      }

      .cls-33 {
        letter-spacing: 0.01em;
      }
    </style>
    <linearGradient id="linear-gradient" x1="270.98" y1="448.15" x2="270.98" y2="424.1" gradientUnits="userSpaceOnUse">
      <stop offset="0" stop-color="#fff"/>
      <stop offset="0.12" stop-color="#fff" stop-opacity="0.82"/>
      <stop offset="0.3" stop-color="#fff" stop-opacity="0.58"/>
      <stop offset="0.47" stop-color="#fff" stop-opacity="0.37"/>
      <stop offset="0.64" stop-color="#fff" stop-opacity="0.21"/>
      <stop offset="0.78" stop-color="#fff" stop-opacity="0.1"/>
      <stop offset="0.91" stop-color="#fff" stop-opacity="0.02"/>
      <stop offset="1" stop-color="#fff" stop-opacity="0"/>
    </linearGradient>
  </defs>
  <g class="cls-1">
    <g id="BACKGROUND">
      <rect class="cls-2" width="500" height="500"/>
    </g>
    <g id="OBJECTS">
      <g>
        <path class="cls-3" d="M452.62,480.37a12.73,12.73,0,0,0,12.73-12.53c.53-34.64,3.32-85.74-61.92-99.88-52.8-11.43-21.49-105.26-163.69-99.2-102.07,4.35-75,90.39-154.32,97.55-52.81,4.77-53.27,71.56-51.24,102.16a12.74,12.74,0,0,0,12.71,11.9Z"/>
        <path class="cls-4" d="M403.43,368c-52.8-11.43-21.49-105.26-163.69-99.2-24.28,1-41.24,6.69-54.07,14.81,4.33-.57,8.91-1,13.8-1.17,142.2-6.07,110.89,87.77,163.69,99.2,64.55,14,62.51,64.15,61.94,98.77h27.52a12.73,12.73,0,0,0,12.73-12.53C465.88,433.2,468.67,382.1,403.43,368Z"/>
        <g>
          <path class="cls-5" d="M340.34,264.76,173.39,245.27A13,13,0,0,0,159,256.68L146.5,363.44a13,13,0,0,0,11.41,14.42l167,19.49a13,13,0,0,0,14.43-11.41l12.46-106.76A13,13,0,0,0,340.34,264.76Z"/>
          <path class="cls-6" d="M350.51,289.75l1.24-10.57a13,13,0,0,0-11.41-14.42L173.39,245.27A13,13,0,0,0,159,256.68l-1.23,10.57Z"/>
          <g>
            <path class="cls-7" d="M184.74,331.89,205.9,294.6a6.83,6.83,0,0,1,6.74-3.41h0a6.84,6.84,0,0,1,6,7.58l-4.4,37.72.18,0a4.73,4.73,0,0,1,4.16,5.25h0a4.74,4.74,0,0,1-5.25,4.16l-.19,0-.8,6.86a5.12,5.12,0,0,1-5.68,4.49h0a5.12,5.12,0,0,1-4.49-5.67l.81-6.87-15.24-1.78a4.74,4.74,0,0,1-4.16-5.26l.4-3.46A6.28,6.28,0,0,1,184.74,331.89Zm19.41,2.79,2.73-23.39a.15.15,0,0,0-.28-.09l-12.51,22.06a.63.63,0,0,0,.48.93l8.88,1A.63.63,0,0,0,204.15,334.68Z"/>
            <path class="cls-7" d="M278.14,342.79l21.16-37.28a6.83,6.83,0,0,1,6.74-3.42h0a6.83,6.83,0,0,1,6,7.58l-4.4,37.72.19,0a4.74,4.74,0,0,1,4.16,5.25h0a4.75,4.75,0,0,1-5.26,4.16l-.19,0-.8,6.87a5.11,5.11,0,0,1-5.67,4.48h0a5.1,5.1,0,0,1-4.49-5.67l.8-6.87-15.23-1.78a4.74,4.74,0,0,1-4.17-5.26l.41-3.46A6,6,0,0,1,278.14,342.79Zm19.4,2.79,2.73-23.39a.15.15,0,0,0-.28-.09l-12.5,22.06a.63.63,0,0,0,.47.93l8.89,1A.63.63,0,0,0,297.54,345.58Z"/>
            <path class="cls-7" d="M236.15,310c1.23-10.54,7.48-15.92,17.65-14.73s15,7.85,13.78,18.39l-4,34.25c-1.23,10.54-7.48,15.92-17.65,14.73s-15-7.86-13.78-18.4Zm6.28,36.11c-.55,4.71,1.31,6.74,4.6,7.12s5.57-1.16,6.12-5.87l4.15-35.56c.55-4.71-1.31-6.74-4.6-7.12s-5.57,1.16-6.12,5.86Z"/>
          </g>
          <g>
            <path class="cls-2" d="M177.41,260a3.49,3.49,0,1,1-3.07-3.87A3.5,3.5,0,0,1,177.41,260Z"/>
            <path class="cls-7" d="M194.16,262a3.5,3.5,0,1,1-3.07-3.88A3.49,3.49,0,0,1,194.16,262Z"/>
            <path class="cls-8" d="M211.52,264a3.5,3.5,0,1,1-3.07-3.87A3.5,3.5,0,0,1,211.52,264Z"/>
          </g>
        </g>
        <g>
          <path class="cls-9" d="M144.36,385.6a89.55,89.55,0,0,0-1.88,20.22c.33,9.16-.76,69.31-.76,69.31h7.35S159.53,428,159.92,424.3s5.66-40.93,5.66-40.93Z"/>
          <path class="cls-6" d="M149.24,382.86s1.69,12.85,4.57,22,17,70.28,17,70.28h7.34S176.81,428,176.3,424.3s-4.23-40.93-4.23-40.93Z"/>
          <path class="cls-6" d="M171.42,475.12v5.13h14a.8.8,0,0,0,.45-1.47c-2-1.36-5.33-3.24-8.37-3.66Z"/>
          <path class="cls-6" d="M142.1,475.12v5.13h14a.8.8,0,0,0,.44-1.47c-2.05-1.36-5.32-3.24-8.37-3.66Z"/>
          <g>
            <path class="cls-9" d="M167.34,323.07s4.81-7.31-.72-8c-4.24-.55-6,.71-6,.71s-4.88-.53-7.56,1.78c-1.83,1.59-8.55,13.9,2.32,18.36S164,329,164,329Z"/>
            <path class="cls-10" d="M166.62,315.05c-4.24-.55-6,.71-6,.71s-4.88-.53-7.56,1.78c-1.83,1.59-8.55,13.9,2.32,18.36,5.11,2.09,7.3.68,8.2-1.4-10.32,2.9-11.44-9.53-9.73-13.07s5.87-1.93,5.87-1.93c1.62-4.09,6.91-3.64,9.09-3.33A3,3,0,0,0,166.62,315.05Z"/>
            <path class="cls-11" d="M160.57,326.63s-1.43-1.43-2.5,0-.35,4.63,1.43,4.81c0,0-.54,4.63-4.1,4.46v3.74h8.37v-2.85s5.17-2.14,5-6.42a23.8,23.8,0,0,0-1.42-7.3A11.67,11.67,0,0,1,160.57,326.63Z"/>
            <path class="cls-12" d="M161.85,338c.83.35.68.87.72,1.66h1.2v-2.85s-2,.64-5-1.05A13.14,13.14,0,0,0,161.85,338Z"/>
          </g>
          <path class="cls-11" d="M163.56,319.81s-4.34-1.73-4.85-.43c-.33.85.52,1.58,1.67,2.32l-1,.17a.27.27,0,0,0-.13.47,5.82,5.82,0,0,0,2.72.44Z"/>
          <g>
            <polygon class="cls-13" points="137.74 366.88 143.56 385.63 143.45 384.68 143.56 385.63 145.52 358.33 137.74 366.88"/>
            <path class="cls-8" d="M194.56,330.68c-8.28-6.13-30.89-11-30.89-11l-1.86,3.4S182.33,331,181,332.18c-.8.7-10.83,5.29-14.22,6.84a5.47,5.47,0,0,1-2.33.48l-10.4-.06a16.4,16.4,0,0,0-13.39,5.88c-5.27,6.07-14.23,20.12-14.23,20.12l15.09,22.2,1.67,2.45,0,0,0,.21,1.49.15c4.85.45,20.41,1.68,28.64-.07l.23-.05-.39-36.42a141.44,141.44,0,0,0,21.66-21A1.52,1.52,0,0,0,194.56,330.68ZM143.9,380.35l-1.47-3.22-4.69-10.25,7.78-8.72-1.4,19.14Z"/>
          </g>
          <polygon class="cls-14" points="142.43 377.13 143.9 380.35 143.19 390.06 143.17 390.09 141.5 387.64 142.43 377.13"/>
          <path class="cls-15" d="M169.62,352.57c-1.39,1-1,10-1.38,15.65-.58,9.43-1.15,17.6-.73,22.86a41.28,41.28,0,0,0,5.79-.73l.23-.05-.39-36.42a141.44,141.44,0,0,0,21.66-21,1.52,1.52,0,0,0-.24-2.23A185.2,185.2,0,0,1,169.62,352.57Z"/>
          <path class="cls-9" d="M176.3,424.3c-.36-2.69-2.4-22.81-3.51-33.8l-5.28.58s7.7,63.33,8.21,84.05h2.44S176.81,428,176.3,424.3Z"/>
          <g>
            <path class="cls-6" d="M142.44,327.67l-1.59-2.86a10.76,10.76,0,1,0-1.86,2.54Z"/>
            <g>
              <path class="cls-2" d="M125.72,318.8h.42v1.5c0,.46.13.66.46.66s.43-.13.66-.42V318.8h.41v2.46h-.34l0-.39h0a1,1,0,0,1-.81.45c-.52,0-.75-.34-.75-1Z"/>
              <path class="cls-2" d="M129.42,321.47v.83H129v-3.5h.34l0,.28h0a1.34,1.34,0,0,1,.79-.34c.63,0,1,.49,1,1.25s-.5,1.33-1.06,1.33a1.2,1.2,0,0,1-.69-.28Zm.61-.5c.4,0,.7-.37.7-1s-.18-.9-.65-.9a1,1,0,0,0-.66.33v1.29A1,1,0,0,0,130,321Z"/>
              <path class="cls-2" d="M132.26,320.7a1.12,1.12,0,0,0,.72.3c.32,0,.49-.18.49-.39s-.3-.36-.57-.46-.73-.3-.73-.71.31-.7.85-.7a1.2,1.2,0,0,1,.76.28l-.2.26a.87.87,0,0,0-.56-.22c-.31,0-.45.17-.45.36s.27.32.55.42.75.28.75.75-.32.73-.91.73a1.49,1.49,0,0,1-.91-.34Z"/>
              <path class="cls-2" d="M135.16,320.68a.3.3,0,0,1,.3.33.3.3,0,0,1-.3.31.3.3,0,0,1-.3-.31A.31.31,0,0,1,135.16,320.68Z"/>
              <path class="cls-2" d="M136.93,320.68a.31.31,0,0,1,.3.33.3.3,0,0,1-.3.31.3.3,0,0,1-.3-.31A.3.3,0,0,1,136.93,320.68Z"/>
            </g>
          </g>
        </g>
        <g>
          <g>
            <g>
              <path class="cls-7" d="M101.11,457.31s-2.27-2.12-.75-10.14,5.38-15.73,3.49-24.44-16.73-30.65-16.78-32.11-4.57,25.53,3.1,36.17,8.59,14.32,8.25,19.91.08,10.1.92,11.4Z"/>
              <path class="cls-16" d="M99.7,441.17c-.89,3.58-1.43,12.55,0,14.7.13.2.32.09.56-.28-.43-1.49-.72-4.09.1-8.42,1.52-8,5.38-15.73,3.49-24.44s-16.73-30.65-16.78-32.11c0,0,2.24,18.28,9.77,30.87C102.22,430.5,100.6,437.59,99.7,441.17Z"/>
            </g>
            <g>
              <path class="cls-7" d="M103.81,456.75s-4.36-10.88,3-20.3,19.2-21.52,19.43-26.31c0,0,3,22.75-6.58,29.19S103.34,446.8,105,456.71Z"/>
              <path class="cls-16" d="M114.19,434.76c-10.72,7.8-11.6,16.79-9.93,20.95a1,1,0,0,0,.69.63c-1.43-9.56,5.25-10.65,14.74-17s6.58-29.19,6.58-29.19S124.91,427,114.19,434.76Z"/>
            </g>
            <g>
              <path class="cls-7" d="M96.65,457a38.23,38.23,0,0,0,.65-12c-.74-6.22-7.24-9.72-13.31-16.29-3.13-3.38-4-21.25-2.11-22.91,0,0-10.72,13-9.07,22.5S92,444,93.57,448.59a25.43,25.43,0,0,1,1.48,8.46Z"/>
              <g>
                <path class="cls-16" d="M78.25,410.92c-3.54,9.59.09,21.21,11.86,28.43,8.66,5.31,5.91,16.36,5.91,16.36l1.41-4.36A34.19,34.19,0,0,0,97.3,445c-.74-6.22-7.24-9.72-13.31-16.29-3-3.26-4-20-2.31-22.67A58.8,58.8,0,0,0,78.25,410.92Z"/>
                <path class="cls-16" d="M81.68,406.05l.2-.24A1,1,0,0,0,81.68,406.05Z"/>
              </g>
            </g>
            <g>
              <path class="cls-7" d="M106.06,456.27s2.51-9.32,8.72-10.57,13.35-10.44,13.73-12.24C128.51,433.46,127.47,450.78,106.06,456.27Z"/>
              <path class="cls-16" d="M114.43,448.78c-3.81,1.9-5.39,4.46-6,6.79,19.07-6.13,20-22.11,20-22.11a6.39,6.39,0,0,1-1,1.82C125.68,438.56,121.15,445.42,114.43,448.78Z"/>
            </g>
          </g>
          <path class="cls-8" d="M119.5,452.84H87l3.86,24.27a3.8,3.8,0,0,0,3.75,3.2H111.9a3.79,3.79,0,0,0,3.74-3.2Z"/>
          <polygon class="cls-17" points="118.86 456.86 119.5 452.84 87 452.84 87.64 456.86 118.86 456.86"/>
          <path class="cls-17" d="M111.63,452.84l-3.86,24.27a3.79,3.79,0,0,1-3.75,3.2h7.88a3.79,3.79,0,0,0,3.74-3.2l3.86-24.27Z"/>
        </g>
        <g>
          <rect class="cls-8" x="196.76" y="409.56" width="146.86" height="29.86"/>
          <rect class="cls-15" x="196.76" y="409.56" width="146.86" height="7.25"/>
          <polygon class="cls-18" points="209.53 409.56 222.94 409.56 219.35 416.81 205.93 416.81 209.53 409.56"/>
          <polygon class="cls-18" points="239.73 409.56 253.14 409.56 249.54 416.81 236.14 416.81 239.73 409.56"/>
          <polygon class="cls-18" points="269.93 409.56 283.34 409.56 279.74 416.81 266.34 416.81 269.93 409.56"/>
          <polygon class="cls-18" points="300.13 409.56 313.53 409.56 309.94 416.81 296.54 416.81 300.13 409.56"/>
          <polygon class="cls-18" points="343.63 409.56 343.63 409.76 340.13 416.81 326.74 416.81 330.33 409.56 343.63 409.56"/>
          <rect class="cls-7" x="215.05" y="439.42" width="10.35" height="40.83"/>
          <rect class="cls-16" x="223.05" y="439.42" width="2.35" height="40.83"/>
          <rect class="cls-7" x="315.8" y="439.42" width="10.35" height="40.83"/>
          <rect class="cls-16" x="323.09" y="439.42" width="3.06" height="40.83"/>
          <rect class="cls-16" x="215.05" y="439.39" width="10.35" height="5.14"/>
          <rect class="cls-16" x="315.8" y="439.39" width="10.35" height="5.14"/>
          <rect class="cls-7" x="215.05" y="404.89" width="10.35" height="4.64"/>
          <rect class="cls-16" x="223.05" y="404.89" width="2.35" height="4.64"/>
          <rect class="cls-7" x="315.8" y="404.89" width="10.35" height="4.64"/>
          <rect class="cls-16" x="323.09" y="404.89" width="3.06" height="4.64"/>
          <rect class="cls-16" x="215.05" y="408.95" width="10.35" height="0.58"/>
          <rect class="cls-16" x="315.8" y="408.95" width="10.35" height="0.58"/>
          <g>
            <polygon class="cls-6" points="222.94 409.56 208.13 439.42 196.76 439.42 196.76 435.3 209.53 409.56 222.94 409.56"/>
            <polygon class="cls-6" points="239.73 409.56 224.92 439.42 238.33 439.42 253.14 409.56 239.73 409.56"/>
            <polygon class="cls-6" points="283.34 409.56 268.53 439.42 255.12 439.42 269.93 409.56 283.34 409.56"/>
            <polygon class="cls-6" points="313.53 409.56 298.73 439.42 285.32 439.42 300.13 409.56 313.53 409.56"/>
            <polygon class="cls-6" points="330.33 409.56 315.52 439.42 328.92 439.42 343.63 409.76 330.33 409.56"/>
          </g>
          <g>
            <polygon class="cls-9" points="222.94 409.56 219.35 416.81 205.93 416.81 209.53 409.56 222.94 409.56"/>
            <polygon class="cls-9" points="253.14 409.56 249.54 416.81 236.14 416.81 239.73 409.56 253.14 409.56"/>
            <polygon class="cls-9" points="283.34 409.56 279.74 416.81 266.34 416.81 269.93 409.56 283.34 409.56"/>
            <polygon class="cls-9" points="313.53 409.56 309.94 416.81 296.54 416.81 300.13 409.56 313.53 409.56"/>
            <polygon class="cls-9" points="343.63 409.76 340.13 416.81 326.74 416.81 330.33 409.56 343.63 409.76"/>
          </g>
          <rect class="cls-19" x="200.86" y="422.48" width="140.24" height="14.94"/>
          <circle class="cls-8" cx="219.95" cy="398.41" r="9.23" transform="translate(-61.15 40.51) rotate(-9.24)"/>
          <path class="cls-6" d="M224.14,398.41A4.19,4.19,0,1,0,220,402.6,4.19,4.19,0,0,0,224.14,398.41Z"/>
          <circle class="cls-8" cx="320.91" cy="398.41" r="9.23" transform="translate(-59.83 56.73) rotate(-9.24)"/>
          <path class="cls-6" d="M325.1,398.41a4.19,4.19,0,1,0-4.19,4.19A4.19,4.19,0,0,0,325.1,398.41Z"/>
        </g>
        <g>
          <path class="cls-8" d="M399.27,477.09H352.49l7.16-17.35h0l2.88-7,.79-1.91,1.29-3.13.27-.63,2.87-7,.53-1.27,5.1-12.38a2.7,2.7,0,0,1,5,0l5.1,12.38.53,1.27,2.88,7,.26.63,1.29,3.13.8,1.91,2.87,7h0Z"/>
          <polygon class="cls-15" points="355.56 469.65 352.5 477.08 399.27 477.08 396.21 469.65 355.56 469.65"/>
          <rect class="cls-7" x="348.76" y="472.64" width="53.57" height="7.57"/>
          <rect class="cls-16" x="390.75" y="472.64" width="11.57" height="7.57"/>
          <g>
            <path class="cls-15" d="M397.43,472.64h-6.62l-5.31-12.89h0l-2.88-7-.79-1.92-1.3-3.12-.26-.64-2.88-7-.53-1.27-4.28-10.42.8-2a2.7,2.7,0,0,1,5,0l5.1,12.38.53,1.27,2.88,7,.26.64,1.29,3.12.8,1.92,2.87,7h0Z"/>
            <g>
              <polygon class="cls-6" points="386.89 447.06 364.88 447.06 367.75 440.06 384.01 440.06 386.89 447.06"/>
              <polygon class="cls-6" points="392.11 459.73 392.11 459.74 359.65 459.74 359.65 459.73 362.53 452.74 389.24 452.74 392.11 459.73"/>
              <polygon class="cls-9" points="386.89 447.06 380.27 447.06 377.39 440.06 384.01 440.06 386.89 447.06"/>
              <polygon class="cls-9" points="392.11 459.73 392.11 459.74 385.5 459.74 385.5 459.73 382.62 452.74 389.24 452.74 392.11 459.73"/>
            </g>
          </g>
        </g>
        <g>
          <path class="cls-5" d="M101.12,307a7,7,0,0,0,7-6,14.91,14.91,0,0,0,.12-1.9,14,14,0,0,0-14-14c-.32,0-.63,0-1,0a14.83,14.83,0,0,0-29.6,1.25c0,.36,0,.72,0,1.08a14.83,14.83,0,0,0-22,11.88.91.91,0,0,0,0,.17A7.07,7.07,0,0,0,48.86,307Z"/>
          <path class="cls-5" d="M434.25,318c11,0,11.65-16.61.63-17.14-.3,0-.61,0-.91,0a18.44,18.44,0,0,0-5.64.89,18.94,18.94,0,0,0-37.46.59A17.59,17.59,0,0,0,379,301.14c-9.65,2.48-7.62,16.84,2.35,16.84Z"/>
          <path class="cls-5" d="M301.7,236.13c11,0,11.64-16.6.62-17.14l-.91,0a18.49,18.49,0,0,0-5.64.88,18.93,18.93,0,0,0-37.45.6,17.51,17.51,0,0,0-11.9-1.16c-9.65,2.49-7.62,16.84,2.34,16.84Z"/>
          <circle class="cls-8" cx="126.01" cy="240.37" r="26.45"/>
          <path class="cls-17" d="M126.23,213.92a26.46,26.46,0,0,1-14.51,48.58h-.22a26.45,26.45,0,1,0,14.73-48.57Z"/>
        </g>
      </g>
      <text class="cls-20" transform="translate(33.61 143.74)"><tspan class="cls-21">P</tspan><tspan x="23.21" y="0">AGES NOT FOUND</tspan></text>
      <text class="cls-22" transform="translate(201.12 495.74)">Business <tspan class="cls-23" x="45.4" y="0">v</tspan><tspan class="cls-24" x="51.05" y="0">e</tspan><tspan class="cls-25" x="57.06" y="0">c</tspan><tspan class="cls-26" x="62.59" y="0">t</tspan><tspan x="66.49" y="0">or c</tspan><tspan class="cls-23" x="84.92" y="0">r</tspan><tspan x="88.73" y="0">e</tspan><tspan class="cls-27" x="94.74" y="0">a</tspan><tspan class="cls-26" x="100.47" y="0">t</tspan><tspan x="104.38" y="0">ed </tspan><tspan class="cls-28" x="119.7" y="0">b</tspan><tspan class="cls-29" x="126.44" y="0">y pi</tspan><tspan class="cls-30" x="144.27" y="0">k</tspan><tspan class="cls-24" x="150.11" y="0">isuperstar - </tspan><tspan class="cls-31" x="208.24" y="0">ww</tspan><tspan class="cls-32" x="226.2" y="0">w</tspan><tspan x="234.56" y="0">.f</tspan><tspan class="cls-23" x="240.55" y="0">r</tspan><tspan class="cls-24" x="244.35" y="0">eepi</tspan><tspan class="cls-33" x="266.01" y="0">k</tspan><tspan x="271.81" y="0">.</tspan><tspan class="cls-26" x="274.29" y="0">c</tspan><tspan x="279.6" y="0">om</tspan></text>
    </g>
  </g>
</svg>
